# xmcd CD database file
#
# Track frame offsets:
#	150
#	19908
#	29102
#	37934
#	59947
#	76525
#	92126
#	105742
#	126713
#	156643
#	178509
#	194808
#	221426
#	234959
#	256112
#	281317
#	297753
#	317339
#	335652
#
# Disc length: 4594 seconds
#
# Revision: 0
# Processed by: cddbd v1.5.2PL0 Copyright (c) Steve Scherf et al.
# Submitted via: CDex 1.71
#
DISCID=1911f013
DTITLE=Various Artist - 20 Years Of Jazz and Improvised Music
DYEAR=2014
DGENRE=Jazz
TTITLE0=BILLY JENKINS - Ronald Reagan
TTITLE1=TRIOVD - Rash
TTITLE2=ACOUSTIC LADYLAND - Iggy
TTITLE3=BLACK TOP - Nubian Archaic Step Dub
TTITLE4=EYES OF A BLUE DOG - Deliverance
TTITLE5=BRASS MASK - I Thank You Jesus
TTITLE6=BRUNO HEINEN SEXTET - Libra
TTITLE7=EMILIA M?RTENSSON - Harvest Moon
TTITLE8=FRAUD - Giraffiti
TTITLE9=BIG AIR - All Good Things
TTITLE10=ACV - Dog Leap Stairs
TTITLE11=POLAR BEAR - King Of Aberdeen
TTITLE12=ALEXANDER HAWKINS - Take The A Train
TTITLE13=TRIPTYCH - Daringly Poised
TTITLE14=LED BIB - Battery Power
TTITLE15=?INDIGO KID - Mr Lepard
TTITLE16=CHRISTINE TOBIN - Muse Of Blues
TTITLE17=INGRID?LAUBROCK and LIAM NOBLE - Electric Ant
TTITLE18=MARILYN CRISPELL?+?RAYMOND?MACDONALD - Flame
EXTD=YEAR: 2014
EXTT0=
EXTT1=
EXTT2=
EXTT3=
EXTT4=
EXTT5=
EXTT6=
EXTT7=
EXTT8=
EXTT9=
EXTT10=
EXTT11=
EXTT12=
EXTT13=
EXTT14=
EXTT15=
EXTT16=
EXTT17=
EXTT18=
PLAYORDER=
